#Cloud_Cumulus_Med_(9)_99_3.obj

v 3.559836 -13.69729 -9.666036
v -1.831644 -9.602552 -13.48272
v -0.27132 -12.86777 -11.2063
v -2.059456 -15.78006 -6.698647
v 5.426695 -9.093455 -13.82709
v -6.942415 -13.32628 -8.587128
v 8.839163 -11.6246 -9.994354
v 3.80557 -16.48807 -4.472295
v 8.980789 -14.28173 -4.632235
v 11.90884 -7.960919 -11.77819
v 14.10348 -10.99689 -5.449133
v 1.607359 -4.027779 -16.72036
v -8.272061 -5.426464 -13.51699
v -8.045757 -9.87739 -11.26279
v -13.03262 -10.93875 -9.491298
v -7.277269 -15.83775 -5.074043
v 8.549713 -5.326348 -14.92527
v 2.116484 -17.21401 0.4428653
v -4.68913 -16.9749 -0.5341515
v 0.1187125 -15.15968 7.580413
v 7.425067 -15.99652 0.7181328
v 7.048974 -14.67083 6.152516
v 5.682137 -9.425933 13.10455
v 10.78181 -13.71037 3.584149
v 14.33981 -11.10988 2.605877
v 10.78739 -10.69372 8.405382
v 14.75717 -7.00247 8.651917
v 10.02249 1.013646 13.92988
v -13.34355 -14.80328 -4.220608
v 20.09331 -9.703259 3.390818
v -7.682595 -14.85123 4.128012
v -7.175559 -10.9231 10.20073
v -12.29601 -15.12637 0.9906286
v -14.39978 -12.33658 7.006468
v -15.43022 -7.296208 11.90082
v -2.041349 -13.55802 10.37191
v -0.6889505 -11.64371 13.33464
v -17.99006 -13.4099 -1.329262
v -19.12653 -12.09013 4.267848
v -21.42549 -9.240784 8.873483
v -19.48052 -10.66665 -6.636913
v -22.43106 -10.48254 -0.01647392
v -23.15557 -9.410706 4.089658
v -23.00279 -8.985669 -4.482868
v -24.90518 -7.406504 -0.7683885
v -24.51751 -6.172449 5.966244
v -18.3393 -6.96847 -11.2825
v -22.13665 -3.835124 -10.23186
v -25.29612 -3.400948 -5.255877
v -13.8052 -6.762569 -12.47588
v -16.11078 -2.260948 -13.46593
v -26.06061 -2.588459 0.1470943
v -24.1968 0.6716827 -9.144679
v -25.08965 3.331384 -3.646311
v -20.58733 2.470824 -12.22969
v -25.48202 2.054411 4.966221
v -23.45366 0.4050602 9.705113
v -22.49805 5.997867 -8.410916
v -23.6256 -4.90271 9.336163
v -20.98582 -5.223347 11.59782
v -18.54188 -2.084951 13.46318
v -14.77183 4.115404 -13.70819
v -18.12361 8.340475 -10.3942
v -11.7378 -1.056756 -14.13546
v -8.356915 1.770825 -14.15877
v -12.38617 7.644381 -12.11616
v -1.557122 2.373499 -15.88272
v -6.408835 7.296279 -12.14577
v -20.03228 10.2193 -4.363222
v -14.94564 11.28434 -6.670913
v -18.9117 12.14346 1.157544
v -22.97856 8.454845 -1.939362
v -23.90063 8.133525 3.006808
v -9.459421 11.62381 -7.328091
v -24.02019 6.401532 7.413511
v -21.36901 10.14096 6.820018
v -19.7225 7.897876 9.822349
v -12.78629 13.1806 -2.061103
v -16.6286 11.88748 7.573727
v -16.66626 3.526511 12.69491
v -13.63442 13.42212 3.015785
v -14.0377 8.515007 10.77365
v -8.155314 6.226778 12.20558
v -14.64323 -1.200617 14.29332
v -12.70047 11.59003 7.905485
v -9.515241 14.71298 -2.164995
v -11.0635 2.093483 13.58177
v -9.305864 -1.889139 13.53257
v -8.781332 9.331691 10.10096
v -10.1105 13.33122 3.588386
v -4.603336 16.71436 0.0229935
v -5.711058 15.59987 -4.661231
v -9.108317 11.37454 7.472351
v -3.052605 13.17673 -9.143241
v -7.347161 13.73461 4.717353
v -5.204119 13.40487 8.288711
v -7.72993 2.388606 13.4212
v -1.411125 17.19024 -4.61618
v 0.150493 10.69211 -12.58381
v 1.852971 16.72972 -7.133042
v -3.412032 11.80325 11.05612
v -0.7193468 9.329833 13.0228
v -4.935701 2.003736 14.79668
v 1.865284 18.83227 -2.041531
v 6.377182 17.77129 -3.414445
v 3.943875 17.70425 3.224428
v 3.73692 13.70437 -10.58727
v 0.188871 18.42539 1.533991
v -2.135514 16.41952 4.097599
v -0.3560793 15.45902 7.331262
v 3.76525 14.02165 8.489533
v 3.283304 6.715008 -15.48911
v 2.78071 1.213899 -17.54024
v 7.379591 -0.5158314 -16.69185
v 6.52792 4.023887 -16.45525
v 7.351676 8.704283 -13.36942
v 12.72107 -2.773648 -13.25377
v 10.688 4.474915 -13.49934
v 7.59206 14.09545 -8.612879
v 11.01497 9.484115 -9.626564
v 10.0957 14.14918 -5.278091
v 15.13573 6.330357 -8.223994
v 14.895 1.888614 -10.71431
v 14.89215 9.183224 -4.921675
v 17.15052 -5.659947 -11.38803
v 17.34914 -2.30213 -11.69367
v 20.60212 2.95654 -9.188441
v 19.67438 7.637549 -5.88725
v 17.75057 -8.770813 -8.312093
v 23.43247 -1.963966 -9.162486
v 19.20062 -10.42795 -2.23645
v 23.98308 -5.812594 -7.261422
v 22.37002 -8.865854 -4.848933
v 24.23938 -8.63175 1.207456
v 27.13163 -5.798985 -2.602894
v 28.25846 -2.107667 -5.244879
v 26.58271 2.096987 -6.489696
v 23.58415 6.411105 -5.339757
v 29.53268 0.1908754 -2.031029
v 27.92989 -4.027316 1.735024
v 23.30888 -5.299781 6.894488
v 21.11515 8.938999 -1.605595
v 27.05297 5.365484 -2.393563
v 26.23708 5.569548 3.226281
v 14.42515 10.93139 -0.5110701
v 29.11518 3.40515 0.1485965
v 29.39131 0.3948764 1.888927
v 26.62066 0.6492596 5.85208
v 20.15663 10.06531 3.209225
v 10.1131 14.79415 -1.568088
v 8.486271 16.26532 1.806841
v 11.62322 12.84401 2.836776
v 9.816507 13.18351 6.129646
v 14.78158 11.92525 5.985085
v 6.422167 11.9863 10.12158
v 11.5584 10.39087 10.42652
v 7.04682 8.62311 13.50139
v 18.9361 11.05386 7.421787
v 16.6831 10.13024 11.04512
v 22.79017 8.593236 6.305875
v 20.7229 8.337652 10.19941
v 24.64111 5.600874 7.853651
v 12.88516 6.655286 12.6757
v 17.67908 6.342391 12.43149
v 22.19999 4.464466 10.50115
v 22.7275 1.110488 9.914517
v 18.24327 2.375234 11.85589
v 13.85087 2.694438 12.3791
v 18.713 -2.793855 10.13866
v 14.78919 -0.7914156 11.17788
v 19.50039 -7.422356 7.610651
v 3.99526 5.423741 15.64898
v 4.301218 -1.776531 16.25108
v -1.066978 3.980217 16.04078
v -0.02032425 -1.508656 16.49046
v 1.558563 -7.799646 15.68655
v -4.526542 -6.767886 14.2275
v -1.367273 -8.661897 15.18471
v -8.976409 -6.63129 12.36194

vn 0.2422599 -0.7217915 -0.6483264
vn -0.1833167 -0.5284671 -0.8289254
vn -0.09570622 -0.6551102 -0.7494471
vn -0.1374098 -0.8603271 -0.4908725
vn 0.2358257 -0.5246285 -0.8180166
vn -0.2323632 -0.6696601 -0.7053813
vn 0.481418 -0.6693197 -0.5659045
vn 0.2747093 -0.9120041 -0.3046036
vn 0.5972333 -0.7636712 -0.2451913
vn 0.4479669 -0.5142264 -0.7313664
vn 0.4507221 -0.8537148 -0.2608076
vn -0.08666407 -0.2418621 -0.9664327
vn -0.2053889 -0.2551701 -0.9448299
vn -0.2796728 -0.4915266 -0.8247331
vn -0.2624192 -0.6172083 -0.741748
vn -0.2395641 -0.8493974 -0.470248
vn 0.4180721 -0.3018217 -0.8568077
vn 0.1044276 -0.9916872 0.07517517
vn -0.1862635 -0.9809386 0.05536513
vn -0.05725341 -0.8821077 0.4675555
vn 0.4982251 -0.8662949 0.03612357
vn 0.4096466 -0.7946696 0.4479843
vn 0.4786915 -0.4798019 0.7352855
vn 0.6879747 -0.6981751 0.198097
vn 0.6083003 -0.7600856 0.2285617
vn 0.6382587 -0.5799211 0.5062778
vn 0.3889875 -0.5222442 0.7589135
vn 0.4710574 -0.06703176 0.8795519
vn -0.3899815 -0.8695134 -0.3030857
vn 0.3406551 -0.8710431 0.3538898
vn -0.2424287 -0.8558583 0.4568751
vn -0.3635835 -0.6417399 0.6752607
vn -0.3405707 -0.9157411 0.2131427
vn -0.2482772 -0.7949435 0.553555
vn -0.1354198 -0.4312839 0.8919953
vn -0.366791 -0.7950244 0.4831155
vn -0.1475477 -0.6341026 0.7590412
vn -0.5993362 -0.7952663 -0.09136494
vn -0.5503262 -0.8020114 0.232204
vn -0.6424406 -0.5602139 0.5229057
vn -0.5987806 -0.6263948 -0.4990905
vn -0.7756319 -0.6310203 -0.01443891
vn -0.8358431 -0.5279015 0.1506196
vn -0.8191397 -0.4910201 -0.296495
vn -0.945054 -0.325059 -0.03477936
vn -0.9585561 -0.1912929 0.2111333
vn -0.4516537 -0.4293143 -0.7821113
vn -0.7304741 -0.262643 -0.6304176
vn -0.9611008 -0.1381072 -0.2391894
vn -0.1740215 -0.4024582 -0.8987458
vn -0.3032353 -0.1482334 -0.9413157
vn -0.9988108 -0.04856713 0.004264207
vn -0.900624 0.05721499 -0.4308164
vn -0.9761679 0.1783713 -0.123612
vn -0.5971547 0.1323525 -0.7911316
vn -0.9871533 0.07151647 0.1428764
vn -0.8080949 0.07618777 0.5841046
vn -0.8264861 0.3979387 -0.398203
vn -0.86791 -0.1705331 0.4665306
vn -0.5788321 -0.232686 0.7815437
vn -0.4289351 -0.0442191 0.9022524
vn -0.1955914 0.2041685 -0.9591972
vn -0.4628139 0.5864715 -0.6647214
vn -0.07136076 -0.05583402 -0.9958867
vn -0.08575097 0.1512194 -0.9847738
vn -0.0590566 0.5708479 -0.8189292
vn -0.3585557 0.1772564 -0.9165249
vn -0.2566972 0.4713839 -0.8437439
vn -0.6359512 0.70907 -0.3046079
vn -0.2871991 0.8509707 -0.4397335
vn -0.5574849 0.8274881 -0.06688713
vn -0.8497729 0.5003808 -0.1658466
vn -0.9146714 0.404026 0.01180084
vn -0.3376574 0.7282355 -0.5963728
vn -0.8720864 0.2757541 0.4042585
vn -0.6942382 0.6248499 0.3572059
vn -0.4859145 0.392711 0.7808106
vn -0.3890054 0.8786084 -0.2769875
vn -0.2766141 0.794829 0.5401217
vn -0.2954658 0.27938 0.91359
vn -0.2215632 0.9605416 0.1681356
vn -0.1025672 0.5171536 0.8497248
vn -0.2215914 0.3490833 0.9105152
vn -0.05672755 -0.03109056 0.9979055
vn 0.04906575 0.8057963 0.5901567
vn -0.4823719 0.8632516 -0.1487077
vn 0.02025455 0.1807322 0.9833237
vn -0.1455193 -0.09128101 0.9851355
vn -0.2532577 0.6077687 0.7526472
vn -0.2326767 0.8918473 0.3879046
vn -0.4908492 0.8661168 0.09438638
vn -0.4743666 0.7778767 -0.41217
vn -0.2959245 0.7807909 0.5502673
vn -0.4021268 0.6211234 -0.672681
vn -0.5005233 0.7721369 0.3915113
vn -0.4967065 0.7055758 0.5054163
vn -0.2427718 0.1636303 0.9561835
vn -0.4001834 0.8276465 -0.3935156
vn -0.2898609 0.5071902 -0.8116272
vn -0.1211466 0.7837889 -0.6090965
vn -0.2570523 0.5739228 0.7775196
vn -0.1545224 0.5036031 0.8500039
vn -0.4365885 0.1368031 0.8891994
vn -0.09054561 0.9867902 -0.1343372
vn 0.5184979 0.8179008 -0.2493955
vn 0.2349135 0.8804641 0.4118235
vn 0.1593749 0.6455612 -0.7468939
vn -0.258455 0.9226015 0.2863695
vn -0.3938814 0.8238168 0.4076558
vn -0.1341113 0.7978902 0.587695
vn 0.2052625 0.6970875 0.6869762
vn -0.04977736 0.4258124 -0.9034412
vn -0.07465618 0.1033421 -0.9918402
vn 0.4448148 -0.04493067 -0.8944948
vn 0.3773148 0.274397 -0.8844997
vn 0.476719 0.4646051 -0.7462446
vn 0.5251837 -0.03372951 -0.8503201
vn 0.6812622 0.2501944 -0.6879568
vn 0.5658243 0.5959389 -0.5698242
vn 0.7130875 0.451027 -0.5367317
vn 0.7702187 0.5668994 -0.2922125
vn 0.5103627 0.4924872 -0.7049725
vn 0.4696571 0.2928979 -0.8328463
vn 0.5666075 0.6948038 -0.4429488
vn 0.4502181 -0.3070542 -0.8384637
vn 0.3850252 0.1203883 -0.9150203
vn 0.3749391 0.3729982 -0.8487008
vn 0.3219708 0.7089548 -0.6274695
vn 0.4109681 -0.7279442 -0.5488191
vn 0.5861912 -0.03587114 -0.8093783
vn 0.3443005 -0.9319801 -0.1134474
vn 0.6600893 -0.4458758 -0.6045469
vn 0.5891284 -0.7401919 -0.3241045
vn 0.6885183 -0.7074478 0.1595622
vn 0.8754249 -0.4556691 -0.1612357
vn 0.863863 -0.1586129 -0.4781033
vn 0.7531584 0.2646318 -0.6022643
vn 0.5565466 0.616705 -0.5567144
vn 0.9866502 0.001091956 -0.1628497
vn 0.9080515 -0.3272683 0.2614154
vn 0.6724822 -0.4163074 0.6119279
vn 0.5039744 0.8315997 -0.233349
vn 0.806064 0.5418294 -0.2380793
vn 0.8454126 0.5026334 0.1806578
vn 0.6045707 0.7809082 -0.1570878
vn 0.9449566 0.3241063 0.04485758
vn 0.9555032 0.03334282 0.2930903
vn 0.857043 -0.02897297 0.5144296
vn 0.5485955 0.8263469 -0.1272551
vn 0.7923503 0.6095864 -0.02419521
vn 0.6997313 0.6911986 0.1806117
vn 0.6935052 0.7172824 0.06750125
vn 0.4639486 0.7784789 0.4227557
vn 0.3102986 0.9444255 0.1085134
vn 0.2182561 0.7134745 0.6658216
vn 0.2048568 0.7229348 0.6598477
vn 0.2432326 0.4509106 0.8587884
vn 0.5238743 0.827025 0.2039248
vn 0.2145314 0.662062 0.7180878
vn 0.7670023 0.620361 0.1638888
vn 0.6578344 0.4504192 0.6036362
vn 0.8549886 0.2864179 0.4323881
vn 0.1945283 0.2309927 0.9533106
vn 0.3029082 0.1101035 0.9466382
vn 0.6526799 0.05062217 0.7559408
vn 0.6029456 -0.1704224 0.7793669
vn 0.2824904 -0.1761139 0.942965
vn 0.2670499 -0.1171132 0.95654
vn 0.2952301 -0.3213275 0.899771
vn 0.2655449 -0.2720295 0.9249247
vn 0.3604424 -0.5889378 0.7233488
vn 0.1703003 0.2341093 0.9571785
vn 0.3419166 -0.08458493 0.9359158
vn -0.267492 0.2439926 0.9321564
vn -0.1822632 -0.03308349 0.982693
vn 0.1597565 -0.3115371 0.9367084
vn -0.4675149 -0.2567292 0.8458841
vn -0.3225075 -0.3038332 0.8964788
vn -0.2538567 -0.3350864 0.9073444

vt 0 0
vt 0 0
vt 0 0
vt 0 0
vt 0 0
vt 0 0
vt 0 0
vt 0 0
vt 0 0
vt 0 0
vt 0 0
vt 0 0
vt 0 0
vt 0 0
vt 0 0
vt 0 0
vt 0 0
vt 0 0
vt 0 0
vt 0 0
vt 0 0
vt 0 0
vt 0 0
vt 0 0
vt 0 0
vt 0 0
vt 0 0
vt 0 0
vt 0 0
vt 0 0
vt 0 0
vt 0 0
vt 0 0
vt 0 0
vt 0 0
vt 0 0
vt 0 0
vt 0 0
vt 0 0
vt 0 0
vt 0 0
vt 0 0
vt 0 0
vt 0 0
vt 0 0
vt 0 0
vt 0 0
vt 0 0
vt 0 0
vt 0 0
vt 0 0
vt 0 0
vt 0 0
vt 0 0
vt 0 0
vt 0 0
vt 0 0
vt 0 0
vt 0 0
vt 0 0
vt 0 0
vt 0 0
vt 0 0
vt 0 0
vt 0 0
vt 0 0
vt 0 0
vt 0 0
vt 0 0
vt 0 0
vt 0 0
vt 0 0
vt 0 0
vt 0 0
vt 0 0
vt 0 0
vt 0 0
vt 0 0
vt 0 0
vt 0 0
vt 0 0
vt 0 0
vt 0 0
vt 0 0
vt 0 0
vt 0 0
vt 0 0
vt 0 0
vt 0 0
vt 0 0
vt 0 0
vt 0 0
vt 0 0
vt 0 0
vt 0 0
vt 0 0
vt 0 0
vt 0 0
vt 0 0
vt 0 0
vt 0 0
vt 0 0
vt 0 0
vt 0 0
vt 0 0
vt 0 0
vt 0 0
vt 0 0
vt 0 0
vt 0 0
vt 0 0
vt 0 0
vt 0 0
vt 0 0
vt 0 0
vt 0 0
vt 0 0
vt 0 0
vt 0 0
vt 0 0
vt 0 0
vt 0 0
vt 0 0
vt 0 0
vt 0 0
vt 0 0
vt 0 0
vt 0 0
vt 0 0
vt 0 0
vt 0 0
vt 0 0
vt 0 0
vt 0 0
vt 0 0
vt 0 0
vt 0 0
vt 0 0
vt 0 0
vt 0 0
vt 0 0
vt 0 0
vt 0 0
vt 0 0
vt 0 0
vt 0 0
vt 0 0
vt 0 0
vt 0 0
vt 0 0
vt 0 0
vt 0 0
vt 0 0
vt 0 0
vt 0 0
vt 0 0
vt 0 0
vt 0 0
vt 0 0
vt 0 0
vt 0 0
vt 0 0
vt 0 0
vt 0 0
vt 0 0
vt 0 0
vt 0 0
vt 0 0
vt 0 0
vt 0 0
vt 0 0
vt 0 0
vt 0 0
vt 0 0
vt 0 0
vt 0 0
vt 0 0
vt 0 0
vt 0 0

g Cloud_Cumulus_Med_(9)_99_3
usemtl Cloud_Cumulus_Med_(9)_99_3
usemap Cloud_Cumulus_Med_(9)_99_3
f 1/1/1 3/3/3 2/2/2
f 1/1/1 4/4/4 3/3/3
f 3/3/3 4/4/4 2/2/2
f 1/1/1 2/2/2 5/5/5
f 6/6/6 2/2/2 4/4/4
f 1/1/1 5/5/5 7/7/7
f 8/8/8 4/4/4 1/1/1
f 7/7/7 9/9/9 1/1/1
f 1/1/1 9/9/9 8/8/8
f 5/5/5 10/10/10 7/7/7
f 11/11/11 9/9/9 7/7/7
f 10/10/10 11/11/11 7/7/7
f 5/5/5 2/2/2 12/12/12
f 12/12/12 2/2/2 13/13/13
f 14/14/14 13/13/13 2/2/2
f 14/14/14 2/2/2 6/6/6
f 15/15/15 14/14/14 6/6/6
f 13/13/13 14/14/14 15/15/15
f 4/4/4 16/16/16 6/6/6
f 6/6/6 16/16/16 15/15/15
f 10/10/10 5/5/5 17/17/17
f 5/5/5 12/12/12 17/17/17
f 8/8/8 18/18/18 4/4/4
f 16/16/16 4/4/4 19/19/19
f 4/4/4 18/18/18 19/19/19
f 19/19/19 18/18/18 20/20/20
f 8/8/8 21/21/21 18/18/18
f 8/8/8 9/9/9 21/21/21
f 18/18/18 21/21/21 22/22/22
f 18/18/18 22/22/22 20/20/20
f 20/20/20 22/22/22 23/23/23
f 9/9/9 24/24/24 21/21/21
f 24/24/24 22/22/22 21/21/21
f 9/9/9 25/25/25 24/24/24
f 9/9/9 11/11/11 25/25/25
f 24/24/24 26/26/26 22/22/22
f 23/23/23 22/22/22 26/26/26
f 26/26/26 24/24/24 25/25/25
f 27/27/27 26/26/26 25/25/25
f 26/26/26 27/27/27 23/23/23
f 27/27/27 28/28/28 23/23/23
f 16/16/16 19/19/19 29/29/29
f 16/16/16 29/29/29 15/15/15
f 25/25/25 11/11/11 30/30/30
f 27/27/27 25/25/25 30/30/30
f 19/19/19 20/20/20 31/31/31
f 20/20/20 32/32/32 31/31/31
f 19/19/19 31/31/31 33/33/33
f 29/29/29 19/19/19 33/33/33
f 31/31/31 32/32/32 34/34/34
f 34/34/34 33/33/33 31/31/31
f 32/32/32 35/35/35 34/34/34
f 36/36/36 32/32/32 20/20/20
f 37/37/37 36/36/36 20/20/20
f 36/36/36 37/37/37 32/32/32
f 37/37/37 20/20/20 23/23/23
f 29/29/29 33/33/33 38/38/38
f 34/34/34 39/39/39 33/33/33
f 39/39/39 38/38/38 33/33/33
f 40/40/40 34/34/34 35/35/35
f 39/39/39 34/34/34 40/40/40
f 38/38/38 41/41/41 29/29/29
f 41/41/41 15/15/15 29/29/29
f 38/38/38 39/39/39 42/42/42
f 43/43/43 39/39/39 40/40/40
f 43/43/43 42/42/42 39/39/39
f 44/44/44 38/38/38 42/42/42
f 44/44/44 41/41/41 38/38/38
f 42/42/42 43/43/43 45/45/45
f 44/44/44 42/42/42 45/45/45
f 43/43/43 40/40/40 46/46/46
f 46/46/46 45/45/45 43/43/43
f 41/41/41 47/47/47 15/15/15
f 48/48/48 41/41/41 44/44/44
f 48/48/48 47/47/47 41/41/41
f 45/45/45 49/49/49 44/44/44
f 44/44/44 49/49/49 48/48/48
f 47/47/47 50/50/50 15/15/15
f 50/50/50 13/13/13 15/15/15
f 47/47/47 51/51/51 50/50/50
f 47/47/47 48/48/48 51/51/51
f 13/13/13 50/50/50 51/51/51
f 46/46/46 52/52/52 45/45/45
f 52/52/52 49/49/49 45/45/45
f 49/49/49 53/53/53 48/48/48
f 54/54/54 49/49/49 52/52/52
f 54/54/54 53/53/53 49/49/49
f 53/53/53 55/55/55 48/48/48
f 51/51/51 48/48/48 55/55/55
f 46/46/46 56/56/56 52/52/52
f 52/52/52 56/56/56 54/54/54
f 57/57/57 56/56/56 46/46/46
f 58/58/58 55/55/55 53/53/53
f 54/54/54 58/58/58 53/53/53
f 59/59/59 57/57/57 46/46/46
f 59/59/59 46/46/46 40/40/40
f 60/60/60 59/59/59 40/40/40
f 59/59/59 60/60/60 57/57/57
f 60/60/60 40/40/40 35/35/35
f 57/57/57 60/60/60 61/61/61
f 61/61/61 60/60/60 35/35/35
f 55/55/55 62/62/62 51/51/51
f 58/58/58 63/63/63 55/55/55
f 63/63/63 62/62/62 55/55/55
f 51/51/51 62/62/62 64/64/64
f 64/64/64 13/13/13 51/51/51
f 62/62/62 65/65/65 64/64/64
f 65/65/65 13/13/13 64/64/64
f 62/62/62 63/63/63 66/66/66
f 65/65/65 62/62/62 66/66/66
f 67/67/67 13/13/13 65/65/65
f 67/67/67 12/12/12 13/13/13
f 68/68/68 65/65/65 66/66/66
f 65/65/65 68/68/68 67/67/67
f 63/63/63 58/58/58 69/69/69
f 63/63/63 70/70/70 66/66/66
f 70/70/70 63/63/63 69/69/69
f 71/71/71 70/70/70 69/69/69
f 58/58/58 72/72/72 69/69/69
f 71/71/71 69/69/69 72/72/72
f 72/72/72 58/58/58 54/54/54
f 72/72/72 54/54/54 73/73/73
f 73/73/73 71/71/71 72/72/72
f 54/54/54 56/56/56 73/73/73
f 70/70/70 74/74/74 66/66/66
f 74/74/74 68/68/68 66/66/66
f 73/73/73 56/56/56 75/75/75
f 75/75/75 56/56/56 57/57/57
f 75/75/75 76/76/76 73/73/73
f 73/73/73 76/76/76 71/71/71
f 77/77/77 75/75/75 57/57/57
f 75/75/75 77/77/77 76/76/76
f 78/78/78 70/70/70 71/71/71
f 74/74/74 70/70/70 78/78/78
f 76/76/76 79/79/79 71/71/71
f 79/79/79 76/76/76 77/77/77
f 77/77/77 57/57/57 80/80/80
f 57/57/57 61/61/61 80/80/80
f 81/81/81 78/78/78 71/71/71
f 81/81/81 71/71/71 79/79/79
f 82/82/82 79/79/79 77/77/77
f 82/82/82 77/77/77 80/80/80
f 82/82/82 80/80/80 83/83/83
f 80/80/80 61/61/61 84/84/84
f 35/35/35 84/84/84 61/61/61
f 85/85/85 79/79/79 82/82/82
f 85/85/85 81/81/81 79/79/79
f 78/78/78 81/81/81 86/86/86
f 86/86/86 74/74/74 78/78/78
f 80/80/80 84/84/84 87/87/87
f 83/83/83 80/80/80 87/87/87
f 84/84/84 35/35/35 88/88/88
f 88/88/88 87/87/87 84/84/84
f 89/89/89 82/82/82 83/83/83
f 89/89/89 85/85/85 82/82/82
f 85/85/85 90/90/90 81/81/81
f 90/90/90 86/86/86 81/81/81
f 90/90/90 91/91/91 86/86/86
f 74/74/74 86/86/86 92/92/92
f 91/91/91 92/92/92 86/86/86
f 93/93/93 90/90/90 85/85/85
f 93/93/93 85/85/85 89/89/89
f 94/94/94 74/74/74 92/92/92
f 94/94/94 68/68/68 74/74/74
f 90/90/90 93/93/93 95/95/95
f 91/91/91 90/90/90 95/95/95
f 89/89/89 96/96/96 93/93/93
f 93/93/93 96/96/96 95/95/95
f 83/83/83 87/87/87 97/97/97
f 88/88/88 97/97/97 87/87/87
f 98/98/98 92/92/92 91/91/91
f 92/92/92 98/98/98 94/94/94
f 99/99/99 68/68/68 94/94/94
f 99/99/99 67/67/67 68/68/68
f 98/98/98 100/100/100 94/94/94
f 100/100/100 99/99/99 94/94/94
f 89/89/89 101/101/101 96/96/96
f 89/89/89 83/83/83 101/101/101
f 101/101/101 83/83/83 102/102/102
f 83/83/83 97/97/97 103/103/103
f 102/102/102 83/83/83 103/103/103
f 88/88/88 103/103/103 97/97/97
f 91/91/91 104/104/104 98/98/98
f 98/98/98 104/104/104 100/100/100
f 100/100/100 104/104/104 105/105/105
f 105/105/105 104/104/104 106/106/106
f 100/100/100 107/107/107 99/99/99
f 100/100/100 105/105/105 107/107/107
f 108/108/108 104/104/104 91/91/91
f 104/104/104 108/108/108 106/106/106
f 108/108/108 91/91/91 109/109/109
f 108/108/108 109/109/109 106/106/106
f 109/109/109 91/91/91 95/95/95
f 96/96/96 109/109/109 95/95/95
f 109/109/109 96/96/96 110/110/110
f 106/106/106 109/109/109 110/110/110
f 101/101/101 110/110/110 96/96/96
f 101/101/101 111/111/111 110/110/110
f 110/110/110 111/111/111 106/106/106
f 102/102/102 111/111/111 101/101/101
f 99/99/99 107/107/107 112/112/112
f 112/112/112 67/67/67 99/99/99
f 112/112/112 113/113/113 67/67/67
f 67/67/67 113/113/113 12/12/12
f 113/113/113 114/114/114 12/12/12
f 17/17/17 12/12/12 114/114/114
f 112/112/112 115/115/115 113/113/113
f 114/114/114 113/113/113 115/115/115
f 107/107/107 116/116/116 112/112/112
f 116/116/116 115/115/115 112/112/112
f 17/17/17 114/114/114 117/117/117
f 10/10/10 17/17/17 117/117/117
f 118/118/118 114/114/114 115/115/115
f 118/118/118 115/115/115 116/116/116
f 118/118/118 117/117/117 114/114/114
f 116/116/116 107/107/107 119/119/119
f 119/119/119 107/107/107 105/105/105
f 119/119/119 120/120/120 116/116/116
f 120/120/120 118/118/118 116/116/116
f 119/119/119 105/105/105 121/121/121
f 121/121/121 120/120/120 119/119/119
f 120/120/120 122/122/122 118/118/118
f 123/123/123 117/117/117 118/118/118
f 122/122/122 123/123/123 118/118/118
f 124/124/124 120/120/120 121/121/121
f 120/120/120 124/124/124 122/122/122
f 10/10/10 117/117/117 125/125/125
f 117/117/117 123/123/123 126/126/126
f 125/125/125 117/117/117 126/126/126
f 123/123/123 122/122/122 127/127/127
f 123/123/123 127/127/127 126/126/126
f 122/122/122 124/124/124 128/128/128
f 122/122/122 128/128/128 127/127/127
f 129/129/129 10/10/10 125/125/125
f 11/11/11 10/10/10 129/129/129
f 125/125/125 126/126/126 130/130/130
f 130/130/130 126/126/126 127/127/127
f 131/131/131 11/11/11 129/129/129
f 30/30/30 11/11/11 131/131/131
f 125/125/125 132/132/132 129/129/129
f 132/132/132 125/125/125 130/130/130
f 133/133/133 131/131/131 129/129/129
f 132/132/132 133/133/133 129/129/129
f 134/134/134 131/131/131 133/133/133
f 30/30/30 131/131/131 134/134/134
f 135/135/135 133/133/133 132/132/132
f 134/134/134 133/133/133 135/135/135
f 136/136/136 132/132/132 130/130/130
f 135/135/135 132/132/132 136/136/136
f 137/137/137 130/130/130 127/127/127
f 137/137/137 136/136/136 130/130/130
f 138/138/138 127/127/127 128/128/128
f 137/137/137 127/127/127 138/138/138
f 139/139/139 135/135/135 136/136/136
f 136/136/136 137/137/137 139/139/139
f 140/140/140 134/134/134 135/135/135
f 139/139/139 140/140/140 135/135/135
f 134/134/134 141/141/141 30/30/30
f 141/141/141 134/134/134 140/140/140
f 138/138/138 128/128/128 142/142/142
f 124/124/124 142/142/142 128/128/128
f 137/137/137 138/138/138 143/143/143
f 139/139/139 137/137/137 143/143/143
f 143/143/143 138/138/138 142/142/142
f 144/144/144 143/143/143 142/142/142
f 142/142/142 124/124/124 145/145/145
f 145/145/145 124/124/124 121/121/121
f 146/146/146 139/139/139 143/143/143
f 144/144/144 146/146/146 143/143/143
f 147/147/147 139/139/139 146/146/146
f 139/139/139 147/147/147 140/140/140
f 147/147/147 146/146/146 144/144/144
f 147/147/147 148/148/148 140/140/140
f 148/148/148 141/141/141 140/140/140
f 148/148/148 147/147/147 144/144/144
f 145/145/145 149/149/149 142/142/142
f 144/144/144 142/142/142 149/149/149
f 145/145/145 121/121/121 150/150/150
f 105/105/105 150/150/150 121/121/121
f 105/105/105 151/151/151 150/150/150
f 105/105/105 106/106/106 151/151/151
f 150/150/150 152/152/152 145/145/145
f 150/150/150 151/151/151 152/152/152
f 153/153/153 151/151/151 106/106/106
f 151/151/151 153/153/153 152/152/152
f 111/111/111 153/153/153 106/106/106
f 152/152/152 154/154/154 145/145/145
f 154/154/154 149/149/149 145/145/145
f 153/153/153 154/154/154 152/152/152
f 153/153/153 111/111/111 155/155/155
f 155/155/155 111/111/111 102/102/102
f 156/156/156 153/153/153 155/155/155
f 154/154/154 153/153/153 156/156/156
f 157/157/157 155/155/155 102/102/102
f 155/155/155 157/157/157 156/156/156
f 154/154/154 158/158/158 149/149/149
f 154/154/154 156/156/156 159/159/159
f 159/159/159 158/158/158 154/154/154
f 160/160/160 149/149/149 158/158/158
f 160/160/160 144/144/144 149/149/149
f 160/160/160 158/158/158 161/161/161
f 161/161/161 158/158/158 159/159/159
f 162/162/162 144/144/144 160/160/160
f 162/162/162 160/160/160 161/161/161
f 148/148/148 144/144/144 162/162/162
f 163/163/163 159/159/159 156/156/156
f 163/163/163 156/156/156 157/157/157
f 159/159/159 164/164/164 161/161/161
f 163/163/163 164/164/164 159/159/159
f 161/161/161 165/165/165 162/162/162
f 162/162/162 165/165/165 148/148/148
f 165/165/165 161/161/161 164/164/164
f 165/165/165 166/166/166 148/148/148
f 148/148/148 166/166/166 141/141/141
f 167/167/167 165/165/165 164/164/164
f 166/166/166 165/165/165 167/167/167
f 168/168/168 164/164/164 163/163/163
f 168/168/168 167/167/167 164/164/164
f 163/163/163 157/157/157 28/28/28
f 168/168/168 163/163/163 28/28/28
f 141/141/141 166/166/166 169/169/169
f 169/169/169 166/166/166 167/167/167
f 167/167/167 168/168/168 170/170/170
f 28/28/28 170/170/170 168/168/168
f 167/167/167 170/170/170 169/169/169
f 171/171/171 141/141/141 169/169/169
f 141/141/141 171/171/171 30/30/30
f 30/30/30 171/171/171 27/27/27
f 27/27/27 171/171/171 169/169/169
f 27/27/27 169/169/169 170/170/170
f 28/28/28 27/27/27 170/170/170
f 28/28/28 157/157/157 172/172/172
f 157/157/157 102/102/102 172/172/172
f 28/28/28 172/172/172 173/173/173
f 28/28/28 173/173/173 23/23/23
f 102/102/102 174/174/174 172/172/172
f 102/102/102 103/103/103 174/174/174
f 172/172/172 174/174/174 175/175/175
f 172/172/172 175/175/175 173/173/173
f 175/175/175 174/174/174 103/103/103
f 23/23/23 173/173/173 176/176/176
f 176/176/176 173/173/173 175/175/175
f 37/37/37 23/23/23 176/176/176
f 177/177/177 175/175/175 103/103/103
f 177/177/177 103/103/103 88/88/88
f 178/178/178 176/176/176 175/175/175
f 176/176/176 178/178/178 37/37/37
f 178/178/178 175/175/175 177/177/177
f 37/37/37 178/178/178 177/177/177
f 32/32/32 37/37/37 177/177/177
f 88/88/88 179/179/179 177/177/177
f 179/179/179 32/32/32 177/177/177
f 88/88/88 35/35/35 179/179/179
f 32/32/32 179/179/179 35/35/35
